<svg width="210" height="36" viewBox="0 0 210 36" fill="none" xmlns="http://www.w3.org/2000/svg">
<path d="M31.2464 5.78045L21.4225 0L14.2605 12.1305H0L0.0211151 23.5227H14.1549L21.1901 35.8642L31.0985 30.2525L24.0844 17.9321L31.2464 5.78045Z" fill="white"/>
<path d="M67.5425 10.5983H71.5354V27.3701H67.627L67.4158 24.9228C66.4651 26.9059 63.8453 27.8553 61.965 27.8764C57.0003 27.9186 53.3242 24.8596 53.3242 18.9736C53.3242 13.1932 57.1693 10.1553 62.0707 10.1975C64.3101 10.1975 66.4651 11.2522 67.4158 12.9189L67.5425 10.5983ZM57.465 18.9736C57.465 22.1803 59.6834 24.079 62.4298 24.079C68.9791 24.079 68.9791 13.9104 62.4298 13.9104C59.6834 13.9104 57.465 15.767 57.465 18.9736Z" fill="white"/>
<path d="M86.3006 10.5986H91.2653V10.7252L85.7513 18.8474L91.6034 27.2438V27.3493H86.6386L83.0048 21.7376L79.371 27.3493H74.4062V27.2438L80.2583 18.8474L74.7443 10.7252V10.5986H79.7091L83.0048 16.2736L86.3006 10.5986Z" fill="white"/>
<path d="M111.296 10.5986L100.733 35.0496H96.1691L99.6128 27.0961L92.8945 10.5986H97.7326L100.289 17.8347L101.895 22.5604L103.627 17.9402L106.69 10.5986H111.296Z" fill="white"/>
<path d="M116.008 27.3702V14.4802H112.881V10.8516H116.008V9.73344C116.008 5.23986 119.029 3.17236 122.409 3.17236C123.867 3.17236 125.409 3.65762 126.761 4.52258L125.219 7.62378C124.332 7.05417 123.508 6.73769 122.663 6.73769C121.226 6.73769 120.148 7.68707 120.148 9.73344V10.8516H125.092V14.4802H120.148V27.3702H116.008Z" fill="white"/>
<path d="M143.958 19.0158C143.958 23.847 140.662 27.7499 135.212 27.7499C129.761 27.7499 126.486 23.847 126.486 19.0158C126.486 14.2269 129.824 10.2818 135.169 10.2818C140.514 10.2607 143.958 14.2058 143.958 19.0158ZM130.648 19.0158C130.648 21.5685 132.191 23.9524 135.212 23.9524C138.233 23.9524 139.775 21.5685 139.775 19.0158C139.775 16.5053 138 14.0581 135.212 14.0581C132.212 14.037 130.648 16.4843 130.648 19.0158Z" fill="white"/>
<path d="M150.993 10.5988L151.289 12.5397C152.578 10.4722 154.31 10.1558 156.021 10.1558C157.754 10.1558 159.423 10.8309 160.352 11.7591L158.472 15.3666C157.627 14.6493 156.845 14.2696 155.472 14.2696C153.296 14.2696 151.289 15.43 151.289 18.5101V27.3495H147.127V10.5777H150.993V10.5988Z" fill="white"/>
<path d="M173.641 27.3701V18.383C173.641 16.1679 172.479 14.1637 170.197 14.1637C167.958 14.1637 166.627 16.1679 166.627 18.383V27.3701H162.465V10.5772H166.31L166.606 12.6236C167.493 10.9148 169.437 10.303 171.042 10.303C173.049 10.303 175.056 11.1258 176.007 13.4253C177.507 11.0414 179.451 10.3663 181.627 10.3663C186.401 10.3663 188.746 13.2987 188.746 18.3197V27.3701H184.585V18.3197C184.585 16.1046 183.655 14.248 181.416 14.248C179.176 14.248 177.782 16.1889 177.782 18.4041V27.3912H173.641V27.3701Z" fill="white"/>
<path d="M206.005 10.5983H209.998V27.3701H206.09L205.879 24.9228C204.928 26.9059 202.308 27.8553 200.428 27.8764C195.463 27.9186 191.787 24.8596 191.787 18.9736C191.787 13.1932 195.632 10.1553 200.534 10.1975C202.773 10.1975 204.928 11.2522 205.879 12.9189L206.005 10.5983ZM195.928 18.9736C195.928 22.1803 198.146 24.079 200.893 24.079C207.442 24.079 207.442 13.9104 200.893 13.9104C198.125 13.9104 195.928 15.767 195.928 18.9736Z" fill="white"/>
</svg>
