<svg width="140" height="80" viewBox="0 0 140 80" fill="none" xmlns="http://www.w3.org/2000/svg">
<rect width="140" height="65" rx="32.5" fill="#6669AB"/>
<path d="M70 80L78.6603 65H61.3397L70 80Z" fill="#6669AB"/>
<path d="M33.864 42.336C36.408 42.336 38.544 41.496 40.224 39.84L38.424 37.968C37.248 39.12 35.616 39.768 33.936 39.768C30.36 39.768 27.888 37.248 27.888 33.6C27.888 29.952 30.36 27.432 33.936 27.432C35.664 27.432 37.08 28.032 38.232 29.184L40.104 27.456C38.424 25.752 36.288 24.864 33.84 24.864C28.68 24.864 25.056 28.464 25.056 33.6C25.056 38.736 28.656 42.336 33.864 42.336ZM52.8304 42L47.1664 35.832L52.1104 30.144H48.8224L44.5744 35.088V30.144H41.8864V42H44.5744V36.792L49.3264 42H52.8304ZM55.7231 30.144L55.1951 35.808C54.9071 38.856 54.4031 39.552 52.9391 39.912L53.3951 42.264C56.2751 41.712 57.4511 40.224 57.8111 36.144L58.0991 32.592H62.0831V42H64.7711V30.144H55.7231ZM77.0074 30.144L76.9834 31.728C76.0714 30.576 74.5114 29.88 72.6634 29.88C69.1834 29.88 66.7834 32.424 66.7834 36.072C66.7834 39.72 69.1834 42.264 72.6634 42.264C74.4874 42.264 76.0714 41.568 76.9834 40.416L77.0074 42H79.4074V30.144H77.0074ZM73.0954 39.816C70.9594 39.816 69.4714 38.28 69.4714 36.072C69.4714 33.864 70.9594 32.328 73.0954 32.328C75.2314 32.328 76.7194 33.864 76.7194 36.072C76.7194 38.28 75.2314 39.816 73.0954 39.816ZM92.9166 39.552V30.144H84.0606L83.5326 35.808C83.3406 37.872 82.9806 38.688 82.2126 39.552H80.8926V45.12H83.4606V42H92.1726V45.12H94.7166V39.552H92.9166ZM86.4366 32.52H90.2286V39.6H85.1406C85.6926 38.76 86.0286 37.8 86.1486 35.976L86.4366 32.52Z" fill="white"/>
<path d="M115 20.2235L109.655 17L105.759 23.7647H98L98.0115 30.1176H105.701L109.529 37L114.92 33.8706L111.103 27L115 20.2235Z" fill="white"/>
</svg>
