<svg width="140" height="80" viewBox="0 0 140 80" fill="none" xmlns="http://www.w3.org/2000/svg">
<rect width="140" height="65" rx="32.5" fill="#6669AB"/>
<path d="M70 80L78.6603 65H61.3397L70 80Z" fill="#6669AB"/>
<path d="M39.72 42.36C44.88 42.36 48.36 38.832 48.36 33.6C48.36 28.368 44.88 24.84 39.72 24.84C34.536 24.84 31.056 28.368 31.056 33.6C31.056 38.832 34.536 42.36 39.72 42.36ZM39.72 39.768C36.24 39.768 33.888 37.272 33.888 33.6C33.888 29.928 36.24 27.432 39.72 27.432C43.176 27.432 45.528 29.928 45.528 33.6C45.528 37.272 43.176 39.768 39.72 39.768ZM65.7291 36.072C65.7291 32.352 63.0651 29.904 59.0571 29.904V25.2H56.3691V29.904C52.3371 29.904 49.6731 32.352 49.6731 36.072C49.6731 39.816 52.2891 42.24 56.3691 42.24V47.496H59.0571V42.24C63.1371 42.216 65.7291 39.792 65.7291 36.072ZM52.3611 36.072C52.3611 33.84 53.9931 32.328 56.3691 32.328H56.4411V39.816H56.3691C53.9211 39.816 52.3611 38.352 52.3611 36.072ZM59.0091 39.816H58.9611V32.328H59.0331C61.4091 32.328 63.0411 33.84 63.0411 36.072C63.0411 38.328 61.4571 39.816 59.0091 39.816ZM76.7501 30.144L70.4141 37.584L70.4381 34.584V30.144H67.7501V42H70.0061L76.2701 34.536L76.2461 37.248V42H78.9341V30.144H76.7501ZM87.2756 42.264C89.0996 42.264 90.5636 41.664 91.8836 40.392L90.2276 38.592C89.5076 39.384 88.4516 39.816 87.2996 39.816C85.1156 39.816 83.6276 38.304 83.6276 36.072C83.6276 33.864 85.1396 32.328 87.2996 32.328C88.3556 32.328 89.3876 32.736 90.1076 33.456L91.7396 31.704C90.4676 30.48 88.9796 29.88 87.2516 29.88C83.4836 29.88 80.9396 32.4 80.9396 36.072C80.9396 39.816 83.4356 42.264 87.2756 42.264Z" fill="white"/>
<path d="M113 20.2235L107.655 17L103.759 23.7647H96L96.0115 30.1176H103.701L107.529 37L112.92 33.8706L109.103 27L113 20.2235Z" fill="white"/>
</svg>
