<svg width="181" height="80" viewBox="0 0 181 80" fill="none" xmlns="http://www.w3.org/2000/svg">
<rect width="181" height="65" rx="32.5" fill="#6669AB"/>
<path d="M90 80L98.6603 65H81.3397L90 80Z" fill="#6669AB"/>
<path d="M54.488 33.576C54.488 29.232 51.56 26.592 46.688 26.472V24.264H43.856V26.472C38.984 26.592 36.056 29.232 36.056 33.576C36.056 37.968 39.008 40.68 43.856 40.8V42.984H46.688V40.8C51.536 40.68 54.488 37.968 54.488 33.576ZM38.744 33.576C38.744 30.744 40.688 28.992 43.952 28.92V38.256C40.664 38.184 38.744 36.456 38.744 33.576ZM46.592 38.256V28.92C49.856 28.992 51.776 30.744 51.776 33.576C51.776 36.456 49.88 38.184 46.592 38.256ZM66.0455 30.144L66.0215 31.728C65.1095 30.576 63.5495 29.88 61.7015 29.88C58.2215 29.88 55.8215 32.424 55.8215 36.072C55.8215 39.72 58.2215 42.264 61.7015 42.264C63.5255 42.264 65.1095 41.568 66.0215 40.416L66.0455 42H68.4455V30.144H66.0455ZM62.1335 39.816C59.9975 39.816 58.5095 38.28 58.5095 36.072C58.5095 33.864 59.9975 32.328 62.1335 32.328C64.2695 32.328 65.7575 33.864 65.7575 36.072C65.7575 38.28 64.2695 39.816 62.1335 39.816ZM77.4667 30.432C75.5947 30.432 74.1307 31.104 73.0987 32.448C73.4107 29.592 74.8747 28.368 78.3307 27.96C80.2027 27.744 81.5227 27.288 82.7227 26.376L81.5707 24.192C80.2507 24.936 79.5307 25.176 77.7787 25.416C72.9547 26.112 70.5307 29.064 70.5307 34.248V34.68C70.5307 39.552 72.8347 42.264 76.8667 42.264C80.7547 42.264 83.2027 39.96 83.2027 36.264C83.2027 32.736 80.9947 30.432 77.4667 30.432ZM76.9147 39.888C74.7307 39.888 73.3147 38.472 73.3147 36.288C73.3147 34.128 74.7307 32.712 76.9147 32.712C79.0987 32.712 80.5147 34.128 80.5147 36.288C80.5147 38.472 79.0987 39.888 76.9147 39.888ZM91.9516 29.88C90.1276 29.88 88.5436 30.576 87.6316 31.728L87.6076 30.144H85.2076V47.472H87.8956V40.704C88.8316 41.688 90.2956 42.264 91.9516 42.264C95.4316 42.264 97.8316 39.72 97.8316 36.072C97.8316 32.424 95.4316 29.88 91.9516 29.88ZM91.5196 39.816C89.4076 39.816 87.8956 38.28 87.8956 36.072C87.8956 33.864 89.4076 32.328 91.5196 32.328C93.6556 32.328 95.1436 33.864 95.1436 36.072C95.1436 38.28 93.6556 39.816 91.5196 39.816ZM108.845 30.144L102.509 37.584L102.533 34.584V30.144H99.8448V42H102.101L108.365 34.536L108.341 37.248V42H111.029V30.144H108.845ZM124.746 42L119.082 35.832L124.026 30.144H120.738L116.49 35.088V30.144H113.802V42H116.49V36.792L121.242 42H124.746ZM134.661 30.144L134.637 31.728C133.725 30.576 132.165 29.88 130.317 29.88C126.837 29.88 124.437 32.424 124.437 36.072C124.437 39.72 126.837 42.264 130.317 42.264C132.141 42.264 133.725 41.568 134.637 40.416L134.661 42H137.061V30.144H134.661ZM130.749 39.816C128.613 39.816 127.125 38.28 127.125 36.072C127.125 33.864 128.613 32.328 130.749 32.328C132.885 32.328 134.373 33.864 134.373 36.072C134.373 38.28 132.885 39.816 130.749 39.816Z" fill="white"/>
<path d="M156 20.2235L150.655 17L146.759 23.7647H139L139.011 30.1176H146.701L150.529 37L155.92 33.8706L152.103 27L156 20.2235Z" fill="white"/>
</svg>
