<svg version="1.1" xmlns="http://www.w3.org/2000/svg" xmlns:xlink="http://www.w3.org/1999/xlink">

    <symbol viewBox="0 0 35 40" id="element">
        <path d="M35 6.44704L23.9959 0L15.9736 13.5294H0L0.0236516 26.2353H15.8553L23.7356 40L34.8343 33.7412L26.9777 20L35 6.44704Z" />
    </symbol>

    <symbol viewBox="0 0 160 28" id="logo">
        <path d="M23.8068 4.40416L16.3219 0L10.8652 9.24233H0L0.0160877 17.9221H10.7847L16.1449 27.3252L23.6941 23.0496L18.3501 13.6626L23.8068 4.40416Z" fill="#6669AB" />
        <path d="M51.4619 8.07478H54.5041V20.8533H51.5263L51.3653 18.9887C50.641 20.4996 48.645 21.223 47.2124 21.2391C43.4297 21.2712 40.6289 18.9405 40.6289 14.456C40.6289 10.0518 43.5585 7.73723 47.2929 7.76937C48.9991 7.76937 50.641 8.57302 51.3653 9.84283L51.4619 8.07478ZM43.7838 14.456C43.7838 16.8992 45.474 18.3458 47.5665 18.3458C52.5565 18.3458 52.5565 10.5983 47.5665 10.5983C45.474 10.5983 43.7838 12.0128 43.7838 14.456Z" fill="#1B1B1B" />
        <path d="M65.7538 8.0752H69.5364V8.17163L65.3353 14.36L69.794 20.7573V20.8377H66.0113L63.2427 16.5621L60.4741 20.8377H56.6914V20.7573L61.1501 14.36L56.949 8.17163V8.0752H60.7317L63.2427 12.399L65.7538 8.0752Z" fill="#1B1B1B" />
        <path d="M84.7974 8.0752L76.7492 26.7045H73.2723L75.896 20.6447L70.7773 8.0752H74.4635L76.4111 13.5884L77.6345 17.1889L78.9544 13.6688L81.2884 8.0752H84.7974Z" fill="#1B1B1B" />
        <path d="M88.3862 20.8534V11.0325H86.0039V8.26781H88.3862V7.41591C88.3862 3.99223 90.688 2.41699 93.2635 2.41699C94.3741 2.41699 95.5492 2.78671 96.5794 3.44573L95.4043 5.80855C94.7282 5.37456 94.1005 5.13344 93.4566 5.13344C92.3621 5.13344 91.5411 5.85677 91.5411 7.41591V8.26781H95.3077V11.0325H91.5411V20.8534H88.3862Z" fill="#1B1B1B" />
        <path d="M109.683 14.4883C109.683 18.1692 107.172 21.1428 103.019 21.1428C98.8661 21.1428 96.3711 18.1692 96.3711 14.4883C96.3711 10.8396 98.9144 7.8338 102.987 7.8338C107.059 7.81773 109.683 10.8235 109.683 14.4883ZM99.5421 14.4883C99.5421 16.4332 100.717 18.2495 103.019 18.2495C105.321 18.2495 106.496 16.4332 106.496 14.4883C106.496 12.5755 105.144 10.711 103.019 10.711C100.733 10.6949 99.5421 12.5595 99.5421 14.4883Z" fill="#1B1B1B" />
        <path d="M115.043 8.07537L115.269 9.55412C116.251 7.97891 117.571 7.73779 118.874 7.73779C120.194 7.73779 121.466 8.25216 122.174 8.9594L120.742 11.708C120.098 11.1615 119.502 10.8722 118.456 10.8722C116.798 10.8722 115.269 11.7562 115.269 14.103V20.8378H112.098V8.05928H115.043V8.07537Z" fill="#1B1B1B" />
        <path d="M132.3 20.8534V14.0061C132.3 12.3183 131.415 10.7914 129.677 10.7914C127.97 10.7914 126.956 12.3183 126.956 14.0061V20.8534H123.785V8.05882H126.715L126.94 9.61796C127.616 8.316 129.097 7.84985 130.32 7.84985C131.85 7.84985 133.379 8.47674 134.103 10.2288C135.246 8.41245 136.727 7.89807 138.385 7.89807C142.023 7.89807 143.809 10.1323 143.809 13.9579V20.8534H140.638V13.9579C140.638 12.2701 139.93 10.8556 138.224 10.8556C136.518 10.8556 135.455 12.3344 135.455 14.0221V20.8695H132.3V20.8534Z" fill="#1B1B1B" />
        <path d="M156.958 8.07478H160V20.8533H157.022L156.861 18.9887C156.137 20.4996 154.141 21.223 152.708 21.2391C148.926 21.2712 146.125 18.9405 146.125 14.456C146.125 10.0518 149.055 7.73723 152.789 7.76937C154.495 7.76937 156.137 8.57302 156.861 9.84283L156.958 8.07478ZM149.28 14.456C149.28 16.8992 150.97 18.3458 153.063 18.3458C158.053 18.3458 158.053 10.5983 153.063 10.5983C150.954 10.5983 149.28 12.0128 149.28 14.456Z" fill="#1B1B1B" />
    </symbol>

    <symbol viewBox="0 0 24 19" id="header-feedback">
        <line y1="-0.5" x2="9.66863" y2="-0.5" transform="matrix(0.931812 -0.362942 -0.386427 -0.92232 12.3438 9.92676)" stroke="white" />
        <line y1="-0.5" x2="9.66863" y2="-0.5" transform="matrix(-0.931812 -0.362942 0.386427 -0.92232 12.9844 9.92676)" stroke="white" />
        <path d="M1.34766 17.833V5.10685L12.3638 0.919055L23.4246 5.10733V17.833H1.34766Z" stroke="white" />
    </symbol>

    <symbol viewBox="0 0 24 24" id="icon-plus">
        <path d="M11.9668 0.76709V23.1668M23.1666 11.9669H0.766954" />
    </symbol>

    <symbol viewBox="0 0 64 64" id="slider-prev">
        <path d="M1 32.0861L32.0861 63.1721M1.70711 32.0861L32.7932 1M1.60266 32.2324H63.5791" />
    </symbol>

    <symbol viewBox="0 0 64 64" id="slider-next">
        <path d="M62.9424 32.0861L31.8563 63.1721M62.2353 32.0861L31.1492 1M62.3397 32.2324H0.363281" />
    </symbol>

    <symbol viewBox="0 0 190 33" id="footer-logo">
        <path d="M28.2707 5.22994L19.3823 0L12.9024 10.9753H0L0.0191042 21.2825H12.8068L19.172 32.4487L28.1368 27.3714L21.7908 16.2243L28.2707 5.22994Z" fill="white" />
        <path d="M61.1103 9.58889H64.723V24.7634H61.1868L60.9956 22.5492C60.1355 24.3434 57.7652 25.2024 56.064 25.2215C51.572 25.2597 48.2461 22.492 48.2461 17.1666C48.2461 11.9366 51.725 9.18805 56.1596 9.22622C58.1858 9.22622 60.1355 10.1806 60.9956 11.6885L61.1103 9.58889ZM51.9926 17.1666C51.9926 20.0679 53.9996 21.7857 56.4845 21.7857C62.4101 21.7857 62.4101 12.5856 56.4845 12.5856C53.9996 12.5856 51.9926 14.2653 51.9926 17.1666Z" fill="white" />
        <path d="M78.0839 9.58911H82.5758V9.70363L77.5869 17.0523L82.8816 24.6491V24.7446H78.3897L75.102 19.6673L71.8142 24.7446H67.3223V24.6491L72.617 17.0523L67.6281 9.70363V9.58911H72.1201L75.102 14.7236L78.0839 9.58911Z" fill="white" />
        <path d="M100.696 9.58911L91.1384 31.7115H87.0096L90.1253 24.5155L84.0469 9.58911H88.4242L90.737 16.1361L92.1898 20.4117L93.7571 16.2315L96.5288 9.58911H100.696Z" fill="white" />
        <path d="M104.958 24.7634V13.101H102.129V9.81798H104.958V8.80635C104.958 4.74072 107.691 2.87012 110.75 2.87012C112.069 2.87012 113.464 3.30916 114.687 4.09174L113.292 6.8976C112.489 6.38224 111.744 6.0959 110.979 6.0959C109.679 6.0959 108.704 6.95486 108.704 8.80635V9.81798H113.177V13.101H108.704V24.7634H104.958Z" fill="white" />
        <path d="M130.249 17.2049C130.249 21.5759 127.267 25.1072 122.336 25.1072C117.404 25.1072 114.441 21.5759 114.441 17.2049C114.441 12.8721 117.462 9.30269 122.298 9.30269C127.134 9.2836 130.249 12.853 130.249 17.2049ZM118.207 17.2049C118.207 19.5145 119.602 21.6714 122.336 21.6714C125.069 21.6714 126.465 19.5145 126.465 17.2049C126.465 14.9335 124.859 12.7194 122.336 12.7194C119.622 12.7003 118.207 14.9144 118.207 17.2049Z" fill="white" />
        <path d="M136.613 9.58936L136.881 11.3454C138.047 9.4748 139.614 9.18848 141.163 9.18848C142.73 9.18848 144.24 9.79929 145.081 10.6391L143.38 13.9031C142.615 13.2541 141.908 12.9106 140.666 12.9106C138.697 12.9106 136.881 13.9604 136.881 16.7472V24.7448H133.115V9.57025H136.613V9.58936Z" fill="white" />
        <path d="M157.104 24.7634V16.6322C157.104 14.628 156.053 12.8147 153.988 12.8147C151.962 12.8147 150.758 14.628 150.758 16.6322V24.7634H146.992V9.5698H150.471L150.739 11.4213C151.541 9.8752 153.3 9.32166 154.753 9.32166C156.569 9.32166 158.385 10.0661 159.245 12.1466C160.602 9.98974 162.36 9.37892 164.329 9.37892C168.649 9.37892 170.771 12.0321 170.771 16.5749V24.7634H167.005V16.5749C167.005 14.5707 166.164 12.891 164.138 12.891C162.112 12.891 160.85 14.647 160.85 16.6512V24.7825H157.104V24.7634Z" fill="white" />
        <path d="M186.388 9.58889H190V24.7634H186.464L186.273 22.5492C185.413 24.3434 183.043 25.2024 181.341 25.2215C176.849 25.2597 173.523 22.492 173.523 17.1666C173.523 11.9366 177.002 9.18805 181.437 9.22622C183.463 9.22622 185.413 10.1806 186.273 11.6885L186.388 9.58889ZM177.27 17.1666C177.27 20.0679 179.277 21.7857 181.762 21.7857C187.687 21.7857 187.687 12.5856 181.762 12.5856C179.258 12.5856 177.27 14.2653 177.27 17.1666Z" fill="white" />
    </symbol>

    <symbol viewBox="0 0 49 30" id="renart">
        <path d="M48.5464 21.8663C48.3177 21.761 47.8955 21.6557 47.5144 22.0067C46.066 23.3583 42.5419 25.8684 37.5401 26.0381C26.6863 26.3891 16.7883 18.7536 16.2371 17.9345C21.0336 16.9574 23.297 14.5058 23.901 11.5042C24.5577 8.25108 23.1504 5.07985 20.5528 3.26605C19.3214 2.41181 16.3602 0.358102 10.0449 0.0187448C7.99847 -0.0865728 5.03727 0.258642 3.64755 0.884697C0.26416 2.4118 -0.539172 5.29635 0.316938 7.54897C0.750857 8.68991 1.81806 9.30427 2.73867 9.30427C3.47164 9.30427 3.57132 8.86544 3.57132 8.86544C2.62139 8.40322 1.55419 7.67769 1.84738 6.20909C2.25198 4.13785 6.22762 3.73412 9.1595 3.73412C12.5605 3.73412 15.4982 4.26656 17.8789 5.60059C19.7319 6.64206 20.975 7.7713 21.274 9.5149C22.1301 14.4531 17.1987 16.4893 15.4103 16.5361C15.4103 16.5361 18.0548 10.7377 17.8613 8.53777C17.7675 7.44364 16.5478 6.85271 15.205 6.85271C14.7183 10.1117 11.8041 18.8882 8.53207 23.6567C8.53207 23.6567 8.97772 24.3179 10.3205 23.9142C12.5957 23.2355 14.4721 18.5956 14.4721 18.5956C20.4179 24.4466 29.0201 28.7061 31.8992 29.4082C34.3268 30.005 38.0561 30.3737 40.8062 29.3965C44.8464 27.963 48.4291 24.0136 48.9627 22.6328C49.1269 22.1823 48.7047 21.9424 48.5464 21.8663Z" />
    </symbol>

    <symbol viewBox="0 0 11 21" id="footer-facebook">
        <path d="M0 6.94408H2.35763V5.95887V4.99493V4.83344C2.35763 3.90456 2.3848 2.46867 3.11723 1.57985C3.89043 0.63845 4.95034 0 6.77529 0C9.74849 0 11 0.390581 11 0.390581L10.4103 3.60662C10.4103 3.60662 9.4278 3.34623 8.51056 3.34623C7.59469 3.34623 6.77529 3.64793 6.77529 4.49294V4.83469V5.96012V6.94534H10.5339L10.2716 10.0863H6.77529V21H2.35763V10.085H0V6.94408Z" />
    </symbol>

    <symbol viewBox="0 0 20 20" id="footer-instagram">
        <path d="M20 14.5862L20 5.41382C20 2.42859 17.5714 -1.06157e-07 14.5862 -2.36646e-07L5.41367 -6.37589e-07C2.42859 -7.68071e-07 -1.06157e-07 2.42859 -2.36646e-07 5.41382L-6.37589e-07 14.5863C-7.68071e-07 17.5714 2.42859 20 5.41366 20L14.5862 20C17.5714 20 20 17.5714 20 14.5862V14.5862ZM4.5314 10C4.5314 6.98456 6.98456 4.5314 10 4.5314C13.0154 4.5314 15.4686 6.98456 15.4686 10C15.4686 13.0154 13.0154 15.4686 10 15.4686C6.98456 15.4686 4.5314 13.0154 4.5314 10ZM14.1789 15.5994C14.1789 14.7083 14.9037 13.9835 15.7948 13.9835C16.6859 13.9835 17.4109 14.7083 17.4109 15.5994C17.4109 16.4905 16.6859 17.2154 15.7948 17.2154C14.9037 17.2154 14.1789 16.4905 14.1789 15.5994Z" />
        <path d="M14.2969 9.99924C14.2969 7.63046 12.3697 5.70312 10.0008 5.70312C7.63199 5.70312 5.70465 7.63046 5.70465 9.99924C5.70465 12.3682 7.63199 14.2953 10.0008 14.2953C12.3697 14.2953 14.2969 12.3682 14.2969 9.99924Z" />
        <path d="M16.2383 15.5997C16.2383 15.3552 16.0393 15.1562 15.7949 15.1562C15.5504 15.1562 15.3514 15.3552 15.3514 15.5997C15.3514 15.8443 15.5503 16.0432 15.7949 16.0432C16.0395 16.0432 16.2383 15.8443 16.2383 15.5997Z" />
    </symbol>

    <symbol viewBox="0 0 49 56" id="icon-download">
        <path d="M24.6429 47.4738L48 23.8913M24.6429 46.9374L1.2858 23.3549M24.7529 47.0166L24.7529 0M1 55H47.5849" />
    </symbol>

    <symbol viewBox="0 0 32 32" id="icon-zoom">
        <path d="M14.6741 0.999023C7.12737 0.999023 1 7.12635 1 14.6731C1 22.2199 7.12737 28.3473 14.6741 28.3473C18.2927 28.3473 21.5868 26.9515 24.0338 24.6531L30.2367 30.8699C30.409 31.0421 30.6986 31.0421 30.8708 30.8699C31.043 30.6975 31.0431 30.4218 30.8708 30.2495L24.6402 24.019C26.9333 21.5731 28.3482 18.2869 28.3482 14.6731C28.3482 7.12635 22.2209 0.999023 14.6741 0.999023ZM14.6741 1.88121C21.7441 1.88121 27.4661 7.60314 27.4661 14.6731C27.4661 21.7431 21.7441 27.4651 14.6741 27.4651C7.60415 27.4651 1.88218 21.7431 1.88218 14.6731C1.88218 7.60314 7.60415 1.88121 14.6741 1.88121Z" stroke-width="0.1" />
        <line x1="14.3569" y1="7.85596" x2="14.3569" y2="21.5702" fill="none" />
        <line x1="7.85693" y1="15.0708" x2="21.5712" y2="15.0708" fill="none" />
    </symbol>

    <symbol viewBox="0 0 69 80" id="icon-video">
        <path d="M0.5 1.02885L68 40L0.499996 78.9711L0.5 1.02885Z" />
    </symbol>

    <symbol viewBox="0 0 45 45" id="arrow-down">
        <line x1="45" y1="44.5001" x2="1.03767" y2="44.5001" />
        <line x1="44.5" y1="44.0001" x2="44.5" y2="0.0377884" />
        <line x1="44.4707" y1="44.1775" x2="0.646691" y2="0.353554" />
    </symbol>

    <symbol viewBox="0 0 25 15" id="mobile-menu-link">
        <line y1="7.5" x2="25" y2="7.5" />
        <line y1="0.5" x2="25" y2="0.5" />
        <line y1="14.5" x2="25" y2="14.5" />
    </symbol>

    <symbol viewBox="0 0 37 37" id="mobile-menu-close">
        <path d="M1 1L36 36M36 1L1 36" />
    </symbol>

    <symbol viewBox="0 0 37 37" id="window-close">
        <path d="M1 1L36 36M36 1L1 36" />
    </symbol>

</svg>